<?xml version="1.0" encoding="utf-8"?>
<!-- Generator: Adobe Illustrator 21.0.2, SVG Export Plug-In . SVG Version: 6.00 Build 0)  -->
<svg version="1.1" id="Layer_1" xmlns="http://www.w3.org/2000/svg" xmlns:xlink="http://www.w3.org/1999/xlink" x="0px" y="0px"
	 viewBox="0 0 1024 768" style="enable-background:new 0 0 1024 768;" xml:space="preserve">
<g id="Quotemarks-left">
	<path stroke="#143f88" stroke-width="20" fill="#143f88" d="M735.6,314.7c-1.5-16.7-0.4-62.2,43.2-125.4c3.3-4.8,2.7-11.2-1.4-15.3c-17.8-17.8-28.7-29-36.5-36.8
		c-10.1-10.3-14.8-15-21.5-21.2c-4.5-4.1-11.4-4.1-15.9-0.2c-75.9,66-160.2,202.5-148,369.7c7.1,98.2,78.8,169.4,170.3,169.4
		c93.9,0,170.3-76.4,170.3-170.3C896,394.1,824.9,319.9,735.6,314.7z M725.7,631.1c-78.6,0-140.1-61.9-146.3-147.2c0,0,0,0,0,0
		c-13.7-188.1,98.1-310.2,131.8-342.5c3.3,3.2,7.1,7.1,12.6,12.7c6.7,6.8,15.8,16.1,29.6,30c-52.9,81.4-42.9,139.5-38.5,147.8
		c2.1,3.9,6.3,6.6,10.8,6.6c80.7,0,146.3,65.6,146.3,146.3C872,565.4,806.4,631.1,725.7,631.1z"/>
	<path stroke="#143f88" stroke-width="20" fill="#143f88" d="M309.4,314.7c-1.6-16.7-0.4-62.1,43.2-125.4c3.3-4.8,2.7-11.2-1.4-15.3c-17.7-17.7-28.7-28.9-36.4-36.8
		c-10.2-10.4-14.8-15.1-21.6-21.2c-4.5-4.1-11.4-4.1-15.9-0.2c-75.9,66-160.2,202.5-148,369.7v0c7.2,98.2,78.8,169.4,170.3,169.4
		c93.9,0,170.3-76.4,170.3-170.3C469.8,394.1,398.7,319.8,309.4,314.7z M299.5,631.1c-78.6,0-140.1-61.9-146.4-147.2v0
		C139.4,295.8,251.2,173.7,285,141.3c3.3,3.2,7.1,7.1,12.6,12.8c6.7,6.8,15.8,16.1,29.6,29.9c-52.9,81.5-42.9,139.5-38.5,147.8
		c2.1,3.9,6.3,6.6,10.8,6.6c80.7,0,146.3,65.6,146.3,146.3C445.8,565.4,380.2,631.1,299.5,631.1z"/>
</g>
</svg>
